<svg xmlns="http://www.w3.org/2000/svg" width="34.821" height="34.821" viewBox="0 0 34.821 34.821">
  <path id="svg-image-30" d="M32.667,32.673H27.51v-8.08c0-1.927-.039-4.406-2.687-4.406-2.688,0-3.1,2.1-3.1,4.264v8.222H16.568V16.058h4.953v2.265h.067a5.434,5.434,0,0,1,4.889-2.684c5.225,0,6.191,3.439,6.191,7.914v9.12ZM10.744,13.784a2.995,2.995,0,1,1,2.995-3A2.992,2.992,0,0,1,10.744,13.784ZM13.33,32.673H8.159V16.058H13.33ZM35.246,3H5.57A2.539,2.539,0,0,0,3,5.509v29.8A2.538,2.538,0,0,0,5.57,37.821H35.242a2.548,2.548,0,0,0,2.58-2.508V5.509A2.548,2.548,0,0,0,35.242,3Z" transform="translate(-3.001 -3)" fill="#fff"/>
</svg>
