<svg xmlns="http://www.w3.org/2000/svg" width="34.82" height="34.82" viewBox="0 0 34.82 34.82">
  <path id="svg-image-32" d="M21.2,2c1.959,0,2.952.014,3.81.039l.338.011c.39.014.775.031,1.24.053a12.809,12.809,0,0,1,4.226.81A8.483,8.483,0,0,1,33.9,4.922a8.545,8.545,0,0,1,2.008,3.085,12.878,12.878,0,0,1,.81,4.226c.021.464.037.849.051,1.24l.011.338c.025.858.037,1.851.041,3.81v1.3q0,.238,0,.491V21.2c0,1.959-.014,2.952-.039,3.81l-.011.338c-.014.39-.031.775-.053,1.24a12.851,12.851,0,0,1-.81,4.226,8.9,8.9,0,0,1-5.093,5.093,12.887,12.887,0,0,1-4.226.81c-.464.021-.849.037-1.24.051l-.338.011c-.858.025-1.851.037-3.81.041H17.621c-1.959,0-2.952-.014-3.81-.039l-.338-.011c-.39-.014-.776-.031-1.24-.053a12.858,12.858,0,0,1-4.226-.81,8.9,8.9,0,0,1-5.093-5.093,12.847,12.847,0,0,1-.81-4.226c-.021-.464-.038-.849-.051-1.24l-.011-.338C2.017,24.152,2,23.159,2,21.2V17.621c0-1.959.014-2.952.039-3.81l.011-.338c.014-.39.031-.776.053-1.24a12.8,12.8,0,0,1,.81-4.226A8.495,8.495,0,0,1,4.922,4.922,8.526,8.526,0,0,1,8.006,2.914a12.838,12.838,0,0,1,4.226-.81c.464-.021.849-.038,1.24-.051l.338-.011C14.668,2.017,15.661,2,17.621,2ZM19.41,10.7a8.705,8.705,0,1,0,8.705,8.705A8.7,8.7,0,0,0,19.41,10.7Zm0,3.482a5.223,5.223,0,1,1-5.223,5.223A5.222,5.222,0,0,1,19.41,14.187Zm9.14-6.094a2.176,2.176,0,1,0,2.176,2.175A2.177,2.177,0,0,0,28.551,8.093Z" transform="translate(-2.001 -2.001)" fill="#fff"/>
</svg>
